<svg xmlns="http://www.w3.org/2000/svg" xmlns:svg="http://www.w3.org/2000/svg" xmlns:xlink="http://www.w3.org/1999/xlink" id="svg8" width="150" height="62" x="0" y="0" version="1.1" viewBox="0 0 555.6 230" style="enable-background:new 0 0 555.6 230" xml:space="preserve"><style type="text/css">.st0{fill:#96c64b}.st1{fill:#4baa46}.st2{fill:#95cabd}</style><g id="layer1" transform="translate(0,-87)"><g id="g3721" transform="matrix(0.35277777,0,0,-0.35277777,23.263927,233.45137)"><g id="g3723"><g><g><g id="g3725"><g id="g3731" transform="translate(207.4414,232.5381)"><path id="path3733" d="M95.8,182.6h63.8v-326c0-37.3,9.6-66.3,28.7-86.8 c19.1-20.5,45.5-30.8,79-30.8c35,0,62.4,10,82.2,30.1c19.8,20.1,29.8,49.3,29.8,87.5c0,36.4-10.8,65.1-32.2,86.1 c-21.5,21-49.7,31.5-84.7,31.5c-29.8,0-55.5-8.5-77.3-25.5v63.8c26,14.2,54.1,21.3,84.3,21.3c50.1,0,91.5-16.2,124.4-48.6 c32.8-32.4,49.3-75.2,49.3-128.6c0-56.2-17.1-99.8-51.4-130.8c-34.3-31-77.4-46.4-129.3-46.4c-49.6,0-89.8,16.1-120.5,48.2 c-30.7,32.1-46.1,75.1-46.1,129V182.6z" class="st0"/></g><path id="path3735" d="M695.8-87.9h50.8V180h-50.8V-87.9z" class="st1"/><g id="g3737" transform="translate(173.7061,151.0312)"><path id="path3739" d="M33.9,33.1v-134c0-35.7-9.3-60.7-27.7-74.2 c-19.7-14.6-47.9-22-83.7-22s-64,7.4-83.7,22c-18.4,13.5-27.7,38.5-27.7,74.2v134h-50.8v-134c0-63,28.1-138.1,162.2-138.1 c134,0,162.2,75.1,162.2,138.1v134H33.9z" class="st2"/></g><g id="g3741" transform="translate(614.8887,149.5503)"><path id="path3743" d="M843.3,30.3v-131.9c0-35-9.3-59.4-27.6-72.7 c-19.8-14.4-48-21.6-83.8-21.6c-35.9,0-64.1,7.3-83.8,21.6c-18.5,13.4-27.6,37.2-27.6,72.7V30.3h-50.8v-131.9 c0-62,28.1-136,162.2-136c134,0,162.2,73.9,162.2,136V30.3L843.3,30.3L843.3,30.3z" class="st2"/></g><g id="g3745" transform="translate(363.7881,191.335)"><path id="path3747" d="M382.6,107c7-7.2,10.5-15.7,10.5-25.5 s-3.5-18.2-10.5-25.2c-7-6.9-15.3-10.4-25.2-10.4s-18.2,3.5-25.2,10.4c-7,7-10.4,15.4-10.4,25.2c0,10.2,3.6,18.8,10.7,25.8 c7.2,7,15.5,10.5,24.9,10.5C367.3,117.8,375.6,114.2,382.6,107" class="st1"/></g><g id="g3749" transform="translate(486.1582,163.0308)"><path id="path3751" d="M607.1,55.1c-30.7,32.1-70.9,48.2-120.5,48.2 c-52,0-95.1-15.5-129.3-46.4s-51.4-74.5-51.4-130.8c0-53.4,16.4-96.3,49.3-128.6c32.9-32.3,74.3-48.5,124.4-48.5 c30.2,0,58.4,7.1,84.3,21.3v63.8c-21.7-17-47.5-25.5-77.3-25.5c-35,0-63.2,10.5-84.7,31.5c-21.5,21-32.2,49.7-32.2,86.1 c0,38.3,9.9,67.5,29.8,87.5c19.8,20.1,47.2,30.1,82.2,30.1c33.6,0,59.9-10.3,79-30.8c19.1-20.6,28.7-49.5,28.7-86.8v-176.7 c0-31.5-9.6-55.9-28.7-73.2c-19.1-17.4-45.5-26-79-26v-50.2h5c49.6,0,89.8,13.5,120.5,40.7c29,25.6,44.3,59.3,45.9,101.2h0.2 v184.3C653.2-20,637.8,23,607.1,55.1" class="st0"/></g></g></g></g></g></g></g></svg>